<?xml version="1.0" encoding="utf-8"?>
<!-- Generator: Adobe Illustrator 26.5.0, SVG Export Plug-In . SVG Version: 6.00 Build 0)  -->
<svg version="1.1" id="Layer_1" xmlns="http://www.w3.org/2000/svg" xmlns:xlink="http://www.w3.org/1999/xlink" x="0px" y="0px"
	 viewBox="0 0 460.53 303.32" style="enable-background:new 0 0 460.53 303.32;" xml:space="preserve">
<style type="text/css">
	.st0{fill:#67686B;}
	.st1{fill:#FECE08;}
	.st2{fill:#564500;}
	.st3{fill:#636466;}
</style>
<g>
	<path class="st0" d="M202.85,177.1v-42.05h-10.72v37.96c0,3.29,0.07,10.71,0.09,14.92L202.85,177.1L202.85,177.1z M191.36,188.81
		c-1.41-2.47-3.71-6.42-5.22-8.86l-27.97-44.89h-11.25v73.6h10.72v-38.17c0-4.1-0.11-14.3-0.11-17.03c1.16,1.89,3.68,6.31,5.47,9.04
		l21.3,33.51L191.36,188.81L191.36,188.81z"/>
	<polygon class="st0" points="121.65,146.31 121.65,135.06 110.61,135.06 110.61,146.31 121.65,146.31 	"/>
	<path class="st1" d="M301.85,78.76L85.31,303.32L0,0L301.85,78.76L301.85,78.76z M90.94,129.18l-0.08,157.67l192.7-199.84
		L90.94,129.18L90.94,129.18z M278.81,80.44L13.95,11.32l74.94,110.69L278.81,80.44L278.81,80.44z M83.5,127.33L15.13,26.34
		l68.29,242.82L83.5,127.33L83.5,127.33z"/>
	<path d="M460.53,157.03c0-15.14-10.83-21.97-23.66-21.97H404.6v73.6h10.83v-29.12h16.61l14.61,29.12h12.72l-15.04-30.07
		C454.33,176.06,460.53,168.81,460.53,157.03L460.53,157.03z M449.39,157.35c0,7.99-5.15,11.78-12.51,11.78h-21.45v-23.66h21.45
		C444.34,145.47,449.39,149.67,449.39,157.35L449.39,157.35z"/>
	<path d="M385.81,187.52c0-13.14-9.04-17.77-23.55-22.18c-12.72-3.79-16.09-6.31-16.09-11.46c0-4.94,3.68-9.15,12.3-9.15
		c7.26,0,12.51,2.31,17.14,7.04l7.78-7.89c-6.52-6.31-14.09-9.99-24.08-9.99c-13.56,0-24.29,7.78-24.29,20.5
		c0,13.14,7.46,17.03,23.03,21.66c12.3,3.68,16.61,6.52,16.61,12.2c0,7.15-4.94,10.72-15.24,10.72c-6.94,0-14.19-3.36-19.14-8.73
		l-7.89,7.67c6.2,7.25,15.46,11.88,26.18,11.88C377.4,209.81,385.81,200.77,385.81,187.52L385.81,187.52z"/>
	<polygon points="311.11,208.66 311.11,135.06 300.07,135.06 300.07,208.66 311.11,208.66 	"/>
	<path d="M282.01,135.06h-11.78l-15.14,46.79c-1.37,4.31-3.47,10.93-4.1,13.56c-0.63-2.63-2.73-9.15-4.1-13.46l-15.35-46.89h-11.99
		l25.55,73.6h11.67L282.01,135.06L282.01,135.06z"/>
	<polygon class="st3" points="121.65,208.66 121.65,154.19 110.61,154.19 110.61,208.66 121.65,208.66 	"/>
</g>
</svg>
